<svg width="36" height="36" viewBox="0 0 36 36" fill="none" xmlns="http://www.w3.org/2000/svg">
<path d="M5.62476 4.12497C5.22693 4.12497 4.8454 4.283 4.5641 4.56431C4.28279 4.84561 4.12476 5.22714 4.12476 5.62497V30.375C4.12476 30.7728 4.28279 31.1543 4.5641 31.4356C4.8454 31.7169 5.22693 31.875 5.62476 31.875H30.3748C30.7726 31.875 31.1541 31.7169 31.4354 31.4356C31.7167 31.1543 31.8748 30.7728 31.8748 30.375V5.62497C31.8748 5.22714 31.7167 4.84561 31.4354 4.56431C31.1541 4.283 30.7726 4.12497 30.3748 4.12497H5.62476Z" stroke="#0041A4" stroke-width="1.8" stroke-linecap="round" stroke-linejoin="round"/>
<path d="M25.504 22.2382C25.2563 22.6728 24.8979 23.0341 24.4653 23.2853C24.0327 23.5365 23.5413 23.6687 23.041 23.6685C22.2892 23.6685 21.5683 23.3699 21.0366 22.8384C20.505 22.3069 20.2062 21.586 20.206 20.8342V18.9922C20.206 18.2403 20.5047 17.5192 21.0363 16.9876C21.568 16.4559 22.2891 16.1572 23.041 16.1572C23.7928 16.1574 24.5137 16.4562 25.0452 16.9878C25.5767 17.5195 25.8752 18.2404 25.8752 18.9922V19.9132H20.2067M14.8022 18C15.546 18.0121 16.2553 18.316 16.777 18.8463C17.2987 19.3766 17.5911 20.0907 17.5911 20.8346C17.5911 21.5785 17.2987 22.2926 16.777 22.8229C16.2553 23.3531 15.546 23.6571 14.8022 23.6692H10.1252V12.3315H14.8022C15.5426 12.3485 16.247 12.6546 16.7646 13.1842C17.2822 13.7139 17.572 14.4251 17.572 15.1657C17.572 15.9063 17.2822 16.6175 16.7646 17.1472C16.247 17.6768 15.5426 17.9829 14.8022 18ZM14.8022 18H10.1252M20.2067 12.3315H25.8752" stroke="#0041A4" stroke-width="1.8" stroke-linecap="round" stroke-linejoin="round"/>
</svg>
