<svg width="31" height="28" viewBox="0 0 31 28" fill="none" xmlns="http://www.w3.org/2000/svg">
<g clip-path="url(#clip0_4_134)">
<path d="M27.7527 25.5116H3.50464C1.9565 25.5116 0.706787 24.2261 0.706787 22.6337V5.36628C0.706787 3.77384 1.9565 2.48837 3.50464 2.48837H27.7527C29.3009 2.48837 30.5506 3.77384 30.5506 5.36628V22.6337C30.5506 24.2261 29.3009 25.5116 27.7527 25.5116ZM3.50464 4.40698C2.98238 4.40698 2.57203 4.82907 2.57203 5.36628V22.6337C2.57203 23.1709 2.98238 23.593 3.50464 23.593H27.7527C28.275 23.593 28.6854 23.1709 28.6854 22.6337V5.36628C28.6854 4.82907 28.275 4.40698 27.7527 4.40698H3.50464Z" fill="#0041A4"/>
<path d="M15.6283 17.7605C14.3226 17.7605 13.1289 17.2233 12.2336 16.2448L2.44107 5.53898C2.08667 5.15526 2.10532 4.54131 2.47837 4.17677C2.85142 3.81224 3.44829 3.83142 3.80269 4.21514L13.5952 14.9209C14.6584 16.0913 16.5982 16.0913 17.6614 14.9209L27.4539 4.23433C27.8083 3.85061 28.4052 3.83142 28.7782 4.19596C29.1513 4.56049 29.1699 5.17445 28.8155 5.55817L19.023 16.264C18.1277 17.2425 16.934 17.7797 15.6283 17.7797V17.7605Z" fill="#0041A4"/>
</g>
<defs>
<clipPath id="clip0_4_134">
<rect width="29.8449" height="26.8604" fill="white" transform="translate(0.706055 0.569794)"/>
</clipPath>
</defs>
</svg>
