<svg width="35" height="36" viewBox="0 0 35 36" fill="none" xmlns="http://www.w3.org/2000/svg">
<path d="M17.3527 3.53922C15.4536 3.53922 13.5732 3.91326 11.8188 4.63998C10.0643 5.3667 8.47013 6.43188 7.12732 7.77469C4.41539 10.4866 2.89185 14.1648 2.89185 18C2.89185 24.3917 7.0421 29.8145 12.783 31.7378C13.5061 31.8535 13.7375 31.4052 13.7375 31.0148V28.5709C9.73181 29.4385 8.87863 26.6331 8.87863 26.6331C8.21343 24.9557 7.27348 24.5074 7.27348 24.5074C5.95754 23.6108 7.3747 23.6398 7.3747 23.6398C8.82078 23.741 9.58721 25.1292 9.58721 25.1292C10.8453 27.3273 12.971 26.6765 13.7953 26.3295C13.9255 25.3895 14.3014 24.7532 14.7063 24.3917C11.496 24.0302 8.12666 22.7866 8.12666 17.277C8.12666 15.6718 8.67617 14.3848 9.61613 13.3581C9.47152 12.9966 8.96539 11.4927 9.76074 9.54046C9.76074 9.54046 10.9754 9.15001 13.7375 11.0155C14.8799 10.6973 16.1235 10.5383 17.3527 10.5383C18.5818 10.5383 19.8255 10.6973 20.9679 11.0155C23.7299 9.15001 24.9446 9.54046 24.9446 9.54046C25.7399 11.4927 25.2338 12.9966 25.0892 13.3581C26.0292 14.3848 26.5787 15.6718 26.5787 17.277C26.5787 22.801 23.1948 24.0157 19.9701 24.3773C20.4907 24.8255 20.9679 25.7077 20.9679 27.0525V31.0148C20.9679 31.4052 21.1992 31.868 21.9367 31.7378C27.6777 29.8001 31.8135 24.3917 31.8135 18C31.8135 16.101 31.4395 14.2206 30.7127 12.4661C29.986 10.7117 28.9208 9.1175 27.578 7.77469C26.2352 6.43188 24.6411 5.3667 22.8866 4.63998C21.1321 3.91326 19.2517 3.53922 17.3527 3.53922Z" fill="url(#paint0_linear_4_132)"/>
<defs>
<linearGradient id="paint0_linear_4_132" x1="14.9155" y1="25.8535" x2="-7.24673" y2="18.0754" gradientUnits="userSpaceOnUse">
<stop stop-color="#1850E1"/>
<stop offset="1" stop-color="#7EA2FF"/>
<stop offset="1" stop-color="#C5D5FF"/>
</linearGradient>
</defs>
</svg>
