<svg width="29" height="28" viewBox="0 0 29 28" fill="none" xmlns="http://www.w3.org/2000/svg">
<g clip-path="url(#clip0_4_137)">
<path fill-rule="evenodd" clip-rule="evenodd" d="M14.5507 2.33334C8.1072 2.33334 2.88403 7.55651 2.88403 14C2.88403 16.205 3.49653 18.27 4.5617 20.0293L3.52103 23.5667C3.46128 23.7698 3.45735 23.9852 3.50965 24.1904C3.56195 24.3955 3.66856 24.5828 3.81825 24.7325C3.96795 24.8822 4.15521 24.9888 4.36035 25.0411C4.56549 25.0934 4.78094 25.0894 4.98403 25.0297L8.52137 23.989C10.3398 25.0893 12.4253 25.6696 14.5507 25.6667C20.9942 25.6667 26.2174 20.4435 26.2174 14C26.2174 7.55651 20.9942 2.33334 14.5507 2.33334ZM11.9117 16.6402C14.2719 18.9992 16.5247 19.3107 17.3204 19.3398C18.5302 19.3842 19.7085 18.4602 20.167 17.388C20.2249 17.2546 20.2459 17.1082 20.2279 16.9639C20.2098 16.8196 20.1533 16.6828 20.0644 16.5678C19.425 15.7512 18.5605 15.1643 17.7159 14.581C17.5395 14.4591 17.3228 14.4102 17.1112 14.4445C16.8995 14.4789 16.7094 14.5939 16.5807 14.7653L15.8807 15.8328C15.8439 15.8902 15.7866 15.9314 15.7204 15.9479C15.6542 15.9644 15.5843 15.9549 15.5249 15.9215C15.05 15.6497 14.3582 15.1877 13.8612 14.6907C13.3642 14.1937 12.9302 13.5333 12.6864 13.0888C12.6561 13.0324 12.6474 12.9669 12.6618 12.9044C12.6761 12.842 12.7126 12.7869 12.7645 12.7493L13.8425 11.949C13.9964 11.8152 14.0957 11.6296 14.1215 11.4273C14.1473 11.2251 14.0978 11.0205 13.9825 10.8523C13.4599 10.087 12.8509 9.11401 11.9677 8.46884C11.8537 8.38625 11.7202 8.33475 11.5803 8.3194C11.4404 8.30406 11.2989 8.32541 11.1697 8.38134C10.0964 8.84101 9.1677 10.0193 9.21203 11.2315C9.2412 12.0272 9.5527 14.28 11.9117 16.6402Z" fill="url(#paint0_linear_4_137)"/>
</g>
<defs>
<linearGradient id="paint0_linear_4_137" x1="12.5844" y1="20.783" x2="-5.38989" y2="14.6275" gradientUnits="userSpaceOnUse">
<stop stop-color="#1850E1"/>
<stop offset="1" stop-color="#7EA2FF"/>
<stop offset="1" stop-color="#C5D5FF"/>
</linearGradient>
<clipPath id="clip0_4_137">
<rect width="28" height="28" fill="white" transform="translate(0.550781)"/>
</clipPath>
</defs>
</svg>
